# xmcd CD database file
#
# Track frame offsets:
#	150
#	17382
#	35292
#	53232
#	73508
#	92076
#	110592
#	131238
#	149268
#	166075
#	185329
#	203601
#	218736
#	234733
#	252191
#	269819
#	285367
#	302406
#	318690
#	336027
#
# Disc length: 4739 seconds
#
# Revision: 0
# Processed by: cddbd v1.5.2PL0 Copyright (c) Steve Scherf et al.
# Submitted via: CDex 1.51
#
DISCID=20128114
DTITLE=Salsa - SALSA Spirit CD 4 Ambiante!
DYEAR=2009
DGENRE=Salsa
TTITLE0=01 PAPI OVIEDO FEAT. TABACO RON Chan Chan 
TTITLE1=02 ORQUESTA ARAGON A Bailar Mi Cha Onda 
TTITLE2=03 FELIX BALOY El Son Oe Baloy 
TTITLE3=04 LOS HIJOS DE LOS CELEBRES Medley Trio Matamoros 
TTITLE4=05 EDGAR DANIEL Mentiras 
TTITLE5=06 SONORA CARRUSELES Ave Maria Lola 
TTITLE6=07 EDDIE SANTIAGO Pienso Solo En Ti 
TTITLE7=08 TENTACION CUBANA En La Casa Oe Pedro 
TTITLE8=09 SON 14 AND TIBURON MORALES La Mulata Santiaguera 
TTITLE9=10 PEDRO JESUS La Oe Los Ojitos Negros 
TTITLE10=11 CIENFUEGOS ALL STARS Yo Tengo Mi Clave 
TTITLE11=12 ROBERTO ROENA Mi Mambo Pide Campana 
TTITLE12=13 LOS T1TANES 0 La Oejes Sola 
TTITLE13=14 FRUKO Y SUS TESOS Pachanga Con La Playa 
TTITLE14=15 GRUPO CUPIDO Mi Verdadero Amor 
TTITLE15=16 OSDALGIA Sola 
TTITLE16=17 MARIA VICTORIA Y SU LATIN SON Esa Es Barbara 
TTITLE17=18 SETENTA Funky Tumbao 
TTITLE18=19 NINO SEGARRA Porque Te Amo 
TTITLE19=20 MAELO RUIZ Te Amo 
EXTD=YEAR: 2009
EXTT0=
EXTT1=
EXTT2=
EXTT3=
EXTT4=
EXTT5=
EXTT6=
EXTT7=
EXTT8=
EXTT9=
EXTT10=
EXTT11=
EXTT12=
EXTT13=
EXTT14=
EXTT15=
EXTT16=
EXTT17=
EXTT18=
EXTT19=
PLAYORDER=
